<svg aria-hidden="true" style="position: absolute; width: 0; height: 0; overflow: hidden;" version="1.1" xmlns="http://www.w3.org/2000/svg" xmlns:xlink="http://www.w3.org/1999/xlink">
<defs>
<symbol id="menu" viewBox="0 0 32 32">
<path d="M6.4 11.734v-2.134h19.2v2.134h-19.2zM6.4 17.066h19.2v-2.133h-19.2v2.133zM6.4 22.4h19.2v-2.134h-19.2v2.134z"></path>
</symbol>
<symbol id="logo" viewBox="0 0 133 32">
<path d="M43.756 22.243c-0.947 0-1.875-0.125-2.751-0.393-0.875-0.251-1.607-0.607-2.196-1.053l0.893-1.981c1.213 0.839 2.571 1.267 4.088 1.267 0.787 0 1.393-0.124 1.821-0.392 0.411-0.251 0.625-0.608 0.625-1.053 0-0.411-0.196-0.715-0.571-0.947-0.393-0.232-1.089-0.447-2.072-0.66-1.107-0.233-1.981-0.501-2.643-0.823-0.66-0.32-1.143-0.713-1.445-1.196-0.304-0.464-0.464-1.035-0.464-1.732 0-0.767 0.213-1.445 0.643-2.035 0.411-0.589 1-1.072 1.767-1.411 0.768-0.34 1.643-0.5 2.643-0.5 0.893 0 1.749 0.125 2.589 0.393 0.821 0.267 1.481 0.607 1.964 1.053l-0.893 1.981c-1.16-0.84-2.373-1.267-3.643-1.267-0.732 0-1.303 0.141-1.713 0.409-0.411 0.287-0.625 0.68-0.625 1.16 0 0.287 0.089 0.519 0.251 0.697 0.16 0.196 0.428 0.357 0.803 0.5 0.357 0.143 0.893 0.285 1.589 0.447 1.625 0.357 2.787 0.821 3.5 1.373 0.696 0.555 1.053 1.34 1.053 2.323 0 1.196-0.464 2.124-1.375 2.803-0.911 0.696-2.196 1.036-3.84 1.036zM55.413 20.243c0.269 0 0.555-0.017 0.857-0.053l-0.143 1.964c-0.339 0.053-0.696 0.072-1.035 0.072-1.34 0-2.304-0.285-2.911-0.875-0.625-0.589-0.928-1.464-0.928-2.661v-3.356h-1.661v-2.017h1.661v-2.571h2.696v2.571h2.196v2.017h-2.196v3.339c0 1.053 0.481 1.571 1.464 1.571zM65.383 18.205h-5.713c0.089 0.696 0.321 1.213 0.696 1.517 0.357 0.321 0.893 0.483 1.589 0.483 0.447 0 0.911-0.072 1.357-0.213 0.428-0.161 0.839-0.376 1.213-0.644l0.715 1.804c-0.429 0.339-0.947 0.588-1.553 0.785-0.551 0.181-1.185 0.285-1.843 0.285-0.005 0-0.010 0-0.015-0h0.001c-1.481 0-2.643-0.411-3.481-1.232-0.857-0.804-1.285-1.911-1.285-3.32 0-0.893 0.179-1.68 0.553-2.376s0.875-1.232 1.536-1.607c0.618-0.371 1.364-0.59 2.161-0.59 0.025 0 0.050 0 0.075 0.001l-0.004-0c1.231 0 2.196 0.393 2.928 1.196 0.713 0.804 1.071 1.875 1.071 3.251v0.66zM61.455 14.956c-0.517 0-0.911 0.16-1.213 0.481-0.304 0.34-0.5 0.804-0.573 1.429h3.447c-0.035-0.625-0.196-1.107-0.481-1.429-0.268-0.32-0.661-0.481-1.179-0.481zM69.699 9.495h-2.696v12.587h2.696v-12.587zM74.439 9.495h-2.696v12.587h2.696v-12.587zM85.396 13.313v8.767h-2.679v-1.304c-0.267 0.447-0.624 0.804-1.107 1.053-0.481 0.268-1.036 0.393-1.643 0.393-0.768 0-1.428-0.179-2.017-0.553-0.596-0.386-1.063-0.927-1.348-1.566l-0.009-0.023c-0.339-0.679-0.5-1.464-0.5-2.373 0-0.912 0.16-1.716 0.5-2.412 0.321-0.696 0.787-1.232 1.375-1.607 0.547-0.369 1.221-0.59 1.947-0.59 0.019 0 0.037 0 0.056 0l-0.003-0c0.607 0 1.16 0.125 1.643 0.375 0.483 0.268 0.84 0.627 1.107 1.072v-1.232h2.679zM80.753 20.169c0.625 0 1.125-0.213 1.464-0.643 0.34-0.429 0.5-1.053 0.5-1.857 0-0.803-0.16-1.428-0.5-1.875-0.339-0.428-0.839-0.643-1.464-0.643-0.624 0-1.124 0.213-1.464 0.679-0.339 0.428-0.517 1.072-0.517 1.875 0 0.804 0.179 1.411 0.517 1.84 0.34 0.409 0.84 0.624 1.464 0.624zM93.731 15.315l-1.517 0.16c-0.751 0.072-1.287 0.287-1.589 0.627-0.304 0.356-0.464 0.82-0.464 1.409v4.571h-2.696v-8.765h2.588v1.481c0.447-1.017 1.357-1.571 2.733-1.66l0.784-0.053 0.16 2.231zM104.229 22.243c-0.947 0-1.875-0.125-2.749-0.393-0.875-0.251-1.607-0.607-2.196-1.053l0.893-1.981c1.213 0.839 2.571 1.267 4.088 1.267 0.787 0 1.392-0.124 1.821-0.392 0.411-0.251 0.625-0.608 0.625-1.053 0-0.411-0.197-0.715-0.572-0.947-0.393-0.232-1.089-0.447-2.071-0.66-1.107-0.233-1.983-0.501-2.643-0.823-0.661-0.32-1.143-0.713-1.447-1.196-0.304-0.464-0.464-1.035-0.464-1.732 0-0.767 0.213-1.445 0.643-2.035 0.411-0.589 1-1.072 1.768-1.411 0.767-0.34 1.643-0.5 2.643-0.5 0.893 0 1.749 0.125 2.588 0.393 0.821 0.267 1.483 0.607 1.964 1.053l-0.893 1.981c-1.16-0.84-2.373-1.267-3.641-1.267-0.733 0-1.304 0.141-1.713 0.409-0.411 0.287-0.627 0.68-0.627 1.16 0 0.287 0.091 0.519 0.251 0.697 0.16 0.196 0.429 0.357 0.804 0.5 0.357 0.143 0.893 0.285 1.589 0.447 1.624 0.357 2.785 0.821 3.499 1.373 0.696 0.555 1.053 1.34 1.053 2.323 0 1.196-0.464 2.124-1.373 2.803-0.912 0.696-2.197 1.036-3.84 1.036zM115.1 22.223c-0.928 0-1.749-0.196-2.445-0.572-0.693-0.362-1.248-0.906-1.615-1.568l-0.010-0.020c-0.375-0.68-0.571-1.483-0.571-2.411s0.196-1.732 0.571-2.428c0.382-0.673 0.937-1.21 1.604-1.562l0.022-0.010c0.696-0.373 1.517-0.553 2.445-0.553 0.929 0 1.751 0.179 2.447 0.553s1.249 0.893 1.625 1.572c0.373 0.696 0.571 1.5 0.571 2.427 0 0.929-0.196 1.733-0.571 2.412-0.376 0.696-0.929 1.213-1.627 1.588-0.695 0.376-1.516 0.572-2.445 0.572zM115.1 20.169c1.304 0 1.964-0.84 1.964-2.517 0-0.84-0.16-1.483-0.5-1.893-0.339-0.411-0.839-0.624-1.464-0.624-1.303 0-1.964 0.84-1.964 2.517 0 1.679 0.661 2.517 1.964 2.517zM128.168 13.313v-2.567h2.688v2.568h2.2v2.017h-2.2v3.339c0 1.051 0.488 1.572 1.475 1.572 0.271 0 0.553-0.012 0.856-0.055l-0.152 1.973c-0.305 0.041-0.657 0.064-1.015 0.064-0.005 0-0.010 0-0.015 0h0.001c-1.333 0-2.309-0.293-2.916-0.877-0.617-0.575-0.92-1.464-0.92-2.656v-3.36h-3.48v6.753h-2.7v-6.753h-1.659v-2.019h1.659c0.021-1.235 0.379-2.168 1.084-2.785 0.693-0.629 1.756-0.987 3.187-1.063l0.976-0.053 0.163 1.973-0.835 0.043c-0.693 0.021-1.181 0.152-1.464 0.379-0.281 0.24-0.412 0.619-0.412 1.149v0.357h3.48z"></path>
<path d="M6.356 31.58l9.682-5.090c0.094-0.051 0.202-0.079 0.317-0.079s0.223 0.029 0.313 0.078l9.681 5.088c0.047 0.024 0.1 0.038 0.157 0.038 0.183 0 0.332-0.145 0.338-0.327 0.036-3.287-0.245-20.688-9.747-30.963l-0.001-0.001c-0.185-0.199-0.45-0.324-0.743-0.324s-0.558 0.124-0.744 0.324c-9.532 10.268-9.787 27.68-9.747 30.964v0c0.004 0.182 0.153 0.328 0.336 0.328 0.058 0 0.112-0.015 0.157-0.039zM16.356 13.299c1.771 0 3.206 1.436 3.206 3.207s-1.436 3.207-3.207 3.207c-0 0-0 0-0.001 0h0c-1.771 0-3.207-1.436-3.207-3.207s1.436-3.207 3.207-3.207v0z"></path>
<path d="M6.556 10.843c0.013-0.002 0.029-0.003 0.045-0.003 0.187 0 0.339 0.152 0.339 0.339 0 0.039-0.007 0.077-0.019 0.112l0.001-0.002c-0.54 1.494-1.086 3.394-1.52 5.336l-0.064 0.34c-0.026 0.121-0.115 0.217-0.231 0.251l-0.002 0.001c-0.029 0.009-0.063 0.015-0.098 0.015-0.092 0-0.175-0.037-0.235-0.096l0 0-4.403-4.295c-0.126-0.123-0.205-0.294-0.205-0.484 0-0.339 0.249-0.619 0.575-0.667l0.004-0 5.816-0.847zM31.968 11.689c0.328 0.051 0.575 0.332 0.575 0.67 0 0.189-0.077 0.36-0.202 0.482l-0 0-4.403 4.292c-0.061 0.060-0.144 0.097-0.237 0.097-0.161 0-0.296-0.113-0.328-0.265l-0-0.002c-0.499-2.282-1.045-4.182-1.695-6.033l0.109 0.357c-0.012-0.033-0.018-0.071-0.018-0.11 0-0.082 0.029-0.157 0.078-0.216l-0 0.001c0.062-0.075 0.154-0.122 0.258-0.122 0.018 0 0.035 0.001 0.052 0.004l-0.002-0 5.813 0.845z"></path>
</symbol>

<symbol id="cart" viewBox="0 0 32 32">
<path d="M18.8 29.067h-5.6c-3.2 0-5.067 0-6.4-1.067s-1.733-2.8-2.4-6l-0.533-2.667c-1.067-4.8-1.6-7.2 0-9.067 1.467-1.867 4-1.867 8.8-1.867h7.2c4.8 0 7.067 0 8.533 1.867s0.933 4.267 0 9.067l-0.533 2.667c-0.667 3.2-1.067 4.933-2.4 6-1.6 1.067-3.333 1.067-6.667 1.067zM5.733 18.8l0.533 2.667c0.533 2.8 0.933 4.133 1.733 4.933 0.8 0.667 2.267 0.667 5.067 0.667h5.733c2.8 0 4.267 0 5.067-0.667s1.067-2.133 1.733-4.8l0.533-2.667c0.933-4.133 1.333-6.267 0.4-7.333-0.8-1.067-2.533-1.067-6.933-1.067h-7.067c-4.267 0-6.4 0-7.333 1.067s-0.4 3.067 0.533 7.2v0z"></path>
<path d="M28.267 15.6h-24c-0.533 0-1.067-0.4-1.067-1.067s0.4-1.067 1.067-1.067h24c0.533 0 1.067 0.4 1.067 1.067s-0.533 1.067-1.067 1.067zM18.933 19.733h-5.333c-0.533 0-1.067-0.4-1.067-1.067s0.4-1.067 1.067-1.067h5.333c0.533 0 1.067 0.4 1.067 1.067s-0.533 1.067-1.067 1.067zM24.267 12.933c-0.4 0-0.667-0.267-0.933-0.533l-4-8c-0.267-0.533 0-1.067 0.4-1.333 0.533-0.267 1.067 0 1.333 0.4l4 8c0.267 0.533 0 1.067-0.4 1.333-0.133 0.133-0.267 0.133-0.4 0.133zM8 12.933c-0.133 0-0.267 0-0.4-0.133-0.533-0.133-0.8-0.8-0.533-1.2l4-8c0.267-0.533 0.8-0.667 1.333-0.4s0.667 0.8 0.4 1.333l-4 8c-0.133 0.267-0.4 0.4-0.8 0.4z"></path>
</symbol>
<symbol id="close" viewBox="0 0 32 32">
<path stroke-linejoin="miter" stroke-linecap="butt" stroke-miterlimit="4" stroke-width="2" d="M3.2 3.2l25.6 25.6M3.2 28.8l25.6-25.6"></path>
</symbol>
<symbol id="minus" viewBox="0 0 30 32">
<path d="M15 31c-8.2 0-15-6.8-15-15s6.8-15 15-15 15 6.8 15 15c0 8.2-6.8 15-15 15zM15 3c-7.2 0-13 5.8-13 13s5.8 13 13 13 13-5.8 13-13c0-7.2-5.8-13-13-13zM22 17h-14v-2h14v2z"></path>
</symbol>
<symbol id="plus" viewBox="0 0 30 32">
<path d="M15 31c-8.2 0-15-6.8-15-15s6.8-15 15-15 15 6.8 15 15c0 8.2-6.8 15-15 15zM15 3c-7.2 0-13 5.8-13 13s5.8 13 13 13 13-5.8 13-13c0-7.2-5.8-13-13-13zM16 23h-2v-6h-6v-2h6v-6h2v6h6v2h-6v6z"></path>
</symbol>
<symbol id="star" viewBox="0 0 32 32">
<path stroke-linejoin="round" stroke-linecap="round" stroke-miterlimit="4" stroke-width="2.1328" d="M16 20.915l-4.614 2.552 0.88-5.403-3.733-3.827 5.16-0.787 2.307-4.917 2.307 4.917 5.16 0.787-3.734 3.827 0.882 5.403-4.614-2.552z"></path>
</symbol>
<symbol id="arrow-left" viewBox="0 0 43 32">
<path d="M19.291 25.904l1.883 1.888-3.771 3.771-1.883-1.888 3.771-3.771zM6.171 16.56l-1.883 1.888-1.883-1.888 1.883-1.883 1.888 1.883zM15.52 3.445l1.883-1.883 3.771 3.771-1.883 1.888-1.888-1.888-1.883-1.888zM17.403 27.792l-1.883 1.883-11.232-11.221 3.771-3.771 11.232 11.227-1.888 1.888zM6.176 16.56l-1.888-1.883 11.232-11.232 1.883 1.888 1.888 1.888-11.237 11.227-1.883-1.888zM6.176 16.56v-2.667h36.491v5.333h-36.491v-2.667z"></path>
</symbol>
<symbol id="arrow-right" viewBox="0 0 43 32">
<path d="M23.376 25.904l-1.883 1.888 3.771 3.771 1.883-1.888-3.771-3.771zM36.496 16.56l1.883 1.888 1.883-1.888-1.883-1.883-1.888 1.883zM27.147 3.445l-1.883-1.883-3.771 3.771 1.883 1.888 1.888-1.888 1.883-1.888zM25.264 27.792l1.883 1.883 11.232-11.221-3.771-3.771-11.232 11.227 1.888 1.888zM36.491 16.56l1.888-1.883-11.232-11.232-1.883 1.888-1.888 1.888 11.237 11.227 1.883-1.888zM36.491 16.56v-2.667h-36.491v5.333h36.491v-2.667z"></path>
</symbol>
<symbol id="arrow-down" viewBox="0 0 48 32">
<path d="M24 27.733l-19.733-19.733 3.733-3.733 16 16 16-16 3.733 3.733z"></path>
</symbol>
<symbol id="arrow-up" viewBox="0 0 48 32">
<path d="M40 27.733l-16-16-16 16-3.733-3.733 19.733-19.733 19.733 19.733z"></path>
</symbol>
</defs>
</svg>
